<svg xmlns="http://www.w3.org/2000/svg" version="1.0" viewBox="0 0 512 512">
  <path fill="#CCC" d="M122 22c-6 2-11 6-13 11s-2 10-2 41v11h42V74c0-30 0-36-2-40-2-6-8-11-14-12h-11zm256 0c-6 2-11 6-13 11s-2 10-2 41v11h42V74c0-30 0-36-2-40-2-6-8-11-14-12h-11zM107 256v21h42v-42h-42v21zm64 0v21h42v-42h-42v21zm64 0v21h42v-42h-42v21zm64 0v21h42v-42h-42v21zm64 0v21h42v-42h-42v21zm-256 64v21h42v-42h-42v21zm64 0v21h42v-42h-42v21zm64 0v21h42v-42h-42v21zm64 0v21h42v-42h-42v21zm64 0v21h42v-42h-42v21zm-256 64v21h42v-42h-42v21zm64 0v21h42v-42h-42v21zm64 0v21h42v-42h-42v21zm64 0v21h42v-42h-42v21zm64 0v21h42v-42h-42v21zM64 425c1 13 3 19 9 28 5 6 12 11 20 14 6 2 9 2 163 2s157 0 163-2c8-3 15-8 20-14 6-9 8-15 9-28v-11l-2 6c-5 12-14 21-25 25l-5 3H97l-6-3c-11-4-20-13-25-25l-2-7v12z"/>
  <path fill="#F33" d="M100 65c-17 2-32 18-35 36l-1 48v42h384v-42l-1-48c-3-18-18-34-35-36l-6-1v15c0 14 0 15 2 18 6 8 7 12 7 20 1 9-2 15-8 22a30 30 0 0 1-46 0c-6-7-9-13-9-22 1-8 2-12 8-20 2-2 2-3 2-18V64H150v15c0 15 0 16 2 18 6 8 8 12 8 20 0 9-3 15-9 22a30 30 0 0 1-46 0c-6-7-8-13-8-22 0-8 1-12 7-20 2-3 2-3 2-18V65h-6z"/>
  <path fill="#999" d="m107 99 1 13v1c0 2 0 2 1 1l1 1c-2 2 8 12 10 10l1 1 3 1h1l3 1c2 0 3 0 2-1h2l3-1 1-1c2 2 12-8 10-10l1-1c1 1 1 1 1-1v-1l1-13V86h-42v13zm256 0 1 13v1c0 2 0 2 1 1l1 1c-2 2 8 12 10 10l1 1 3 1h2c-1 1 0 1 2 1l3-1h1l3-1 1-1c2 2 12-8 10-10l1-1c1 1 1 1 1-1v-1l1-13V86h-42v13z"/>
  <path fill="#C30" d="M103 99c-12 16-6 38 13 47 3 2 6 2 12 2s9 0 12-2c15-7 23-24 18-39l-5-8-3-4v8c0 10-2 15-8 20-8 7-20 7-28 0-6-5-7-8-8-19v-9l-3 4zm256 0c-12 16-6 38 13 47 3 2 6 2 12 2s9 0 12-2c15-7 23-24 18-39l-5-8-3-4v8c0 10-2 15-8 20-8 7-20 7-28 0-6-5-7-8-8-19v-9l-3 4z"/>
  <path fill="#FFF" d="m64 304 1 111 3 8c5 10 11 16 21 21l8 3h319l7-3c10-5 16-11 21-21l3-7 1-112V192H64v112zm85-48v21h-42v-42h42v21zm64 0v21h-42v-42h42v21zm64 0v21h-42v-42h42v21zm64 0v21h-42v-42h42v21zm64 0v21h-42v-42h42v21zm-256 64v21h-42v-42h42v21zm64 0v21h-42v-42h42v21zm64 0v21h-42v-42h42v21zm64 0v21h-42v-42h42v21zm64 0v21h-42v-42h42v21zm-256 64v21h-42v-42h42v21zm64 0v21h-42v-42h42v21zm64 0v21h-42v-42h42v21zm64 0v21h-42v-42h42v21zm64 0v21h-42v-42h42v21z"/>
</svg>
