<svg version="1.0" xmlns="http://www.w3.org/2000/svg" viewBox="0 0 512 512"><path d="M121.7 22.4c-5.7 1.5-10.3 5.5-12.8 11.1-1.8 4.1-2.1 9.8-2 40.7L107 85h42l.1-10.8c.1-30.7-.2-36.6-2-40.7-2.5-5.7-7.9-10.1-14.1-11.4-6-1.3-5.2-1.3-11.3.3zm256 0c-5.7 1.5-10.3 5.5-12.8 11.1-1.8 4.1-2.1 9.8-2 40.7L363 85h42l.1-10.8c.1-30.7-.2-36.6-2-40.7-2.5-5.7-7.9-10.1-14.1-11.4-6-1.3-5.2-1.3-11.3.3zM107 256v21h42v-42h-42v21zm64 0v21h42v-42h-42v21zm64 0v21h42v-42h-42v21zm64 0v21h42v-42h-42v21zm64 0v21h42v-42h-42v21zm-256 64v21h42v-42h-42v21zm64 0v21h42v-42h-42v21zm64 0v21h42v-42h-42v21zm64 0v21h42v-42h-42v21zm64 0v21h42v-42h-42v21zm-256 64v21h42v-42h-42v21zm64 0v21h42v-42h-42v21zm64 0v21h42v-42h-42v21zm64 0v21h42v-42h-42v21zm64 0v21h42v-42h-42v21zM64.3 425c.5 13.4 2.3 19.1 8.7 27.6 4.7 6.3 12.1 11.5 20.3 14.4 5.6 2 8.3 2 162.7 2 154.4 0 157.1 0 162.7-2 8.2-2.9 15.6-8.1 20.3-14.4 6.4-8.5 8.2-14.2 8.7-27.6l.3-11.5-2.3 6.2c-4.6 11.9-13.3 20.9-24.7 25.6l-5.5 2.2h-319l-5.5-2.2c-11.4-4.7-20.1-13.7-24.7-25.6l-2.3-6.2.3 11.5z" fill="#CCC"/><path d="M203.2 63.7c29.1.2 76.5.2 105.5 0 29.1-.1 5.3-.2-52.7-.2s-81.8.1-52.8.2zM63.5 148.5c0 23.1.1 32.4.2 20.7.2-11.7.2-30.6 0-42-.1-11.4-.2-1.8-.2 21.3zm385 0c0 23.1.1 32.4.2 20.7.2-11.7.2-30.6 0-42-.1-11.4-.2-1.8-.2 21.3z" fill="#E44940" fill-opacity=".11"/><path d="M159.8 191.7c52.9.2 139.5.2 192.5 0 52.9-.1 9.6-.2-96.3-.2-105.9 0-149.2.1-96.2.2z" fill="#F63"/><path d="M100.3 65.1C82.9 67.3 67.6 82.8 65 101.2c-.5 3.5-1 25.1-1 48V191h384v-41.8c0-22.9-.5-44.5-1-48-2.6-18.5-17.6-33.7-35.5-36.1l-5.5-.8v15c0 14.2.1 15.2 2.4 18.1 5.4 7.1 7.1 11.7 7.1 19.6 0 9-2.3 14.6-8.7 21.6-12.7 13.8-32.9 13.8-45.6 0-6.4-7-8.7-12.6-8.7-21.6 0-7.9 1.7-12.5 7.1-19.6 2.3-2.9 2.4-3.9 2.4-18.2V64H150v15.2c0 14.3.1 15.3 2.4 18.2 5.4 7.1 7.1 11.7 7.1 19.6 0 9-2.3 14.6-8.7 21.6-12.7 13.8-32.9 13.8-45.6 0-6.4-7-8.7-12.6-8.7-21.6 0-7.9 1.7-12.5 7.2-19.6 2.3-3 2.3-3.7 2.1-18l-.3-14.9-5.2.6z" fill="#F33"/><path d="M149.4 74.5c0 6 .1 8.4.3 5.2.2-3.2.2-8.1 0-11-.2-2.9-.3-.3-.3 5.8zm213 0c0 6 .1 8.4.3 5.2.2-3.2.2-8.1 0-11-.2-2.9-.3-.3-.3 5.8z" fill="#C96"/><path d="M106.4 96c0 6.3.1 8.9.3 5.7.2-3.1.2-8.3 0-11.5-.2-3.1-.3-.5-.3 5.8zm43 0c0 6.3.1 8.9.3 5.7.2-3.1.2-8.3 0-11.5-.2-3.1-.3-.5-.3 5.8zm213 0c0 6.3.1 8.9.3 5.7.2-3.1.2-8.3 0-11.5-.2-3.1-.3-.5-.3 5.8zm43 0c0 6.3.1 8.9.3 5.7.2-3.1.2-8.3 0-11.5-.2-3.1-.3-.5-.3 5.8z" fill="#C66"/><path d="M117.3 85.7c5.9.2 15.5.2 21.5 0 5.9-.1 1-.3-10.8-.3s-16.7.2-10.7.3zm256 0c5.9.2 15.5.2 21.5 0 5.9-.1 1-.3-10.8-.3s-16.7.2-10.7.3z" fill="#9CC"/><path d="M107 99.1c0 7.5.4 12.8.9 12.5.5-.4.7.4.3 1.6-.4 1.6-.2 1.9.8 1.3.9-.5 1.1-.4.6.4-1.6 2.5 8.7 12.4 10.8 10.4.3-.4.6-.1.6.6 0 .9.8 1.1 2.6.7 1.7-.5 2.3-.3 1.9.4-.4.6.6 1 2.5 1s2.9-.4 2.5-1c-.4-.7.2-.9 1.9-.4 1.8.4 2.6.2 2.6-.7 0-.7.3-1 .6-.6 2.1 2 12.4-7.9 10.8-10.4-.5-.8-.3-.9.6-.4 1 .6 1.2.3.8-1.3-.4-1.2-.2-2 .3-1.6.5.3.9-5 .9-12.5V86h-42v13.1zm256 0c0 7.5.4 12.8.9 12.5.5-.4.7.4.3 1.6-.4 1.6-.2 1.9.8 1.3.9-.5 1.1-.4.6.4-1.6 2.5 8.7 12.4 10.8 10.4.3-.4.6-.1.6.6 0 .9.8 1.1 2.6.7 1.7-.5 2.3-.3 1.9.4-.4.6.6 1 2.5 1s2.9-.4 2.5-1c-.4-.7.2-.9 1.9-.4 1.8.4 2.6.2 2.6-.7 0-.7.3-1 .6-.6 2.1 2 12.4-7.9 10.8-10.4-.5-.8-.3-.9.6-.4 1 .6 1.2.3.8-1.3-.4-1.2-.2-2 .3-1.6.5.3.9-5 .9-12.5V86h-42v13.1z" fill="#999"/><path d="M102.8 99.1c-11.9 15.5-5.7 37.9 13.1 47.1 3.5 1.8 6.3 2.3 12.1 2.3s8.6-.5 12.1-2.3c15.3-7.5 22.7-23.7 17.6-38.8-1-2.7-3.1-6.6-4.7-8.5l-2.9-3.4-.1 8c-.1 9.8-2 14.7-8 19.7-8.3 7.2-19.7 7.2-27.9.1-6-5.1-7.4-8.4-8.1-18.8l-.5-9-2.7 3.6zm256 0c-11.9 15.5-5.7 37.9 13.1 47.1 3.5 1.8 6.3 2.3 12.1 2.3s8.6-.5 12.1-2.3c15.3-7.5 22.7-23.7 17.6-38.8-1-2.7-3.1-6.6-4.7-8.5l-2.9-3.4-.1 8c-.1 9.8-2 14.7-8 19.7-8.3 7.2-19.7 7.2-27.9.1-6-5.1-7.4-8.4-8.1-18.8l-.5-9-2.7 3.6z" fill="#C30"/><path d="m64.2 303.7.3 111.8 3.6 7.5c4.7 9.7 11.2 16.2 20.9 20.9l7.5 3.6h319l7.5-3.6c9.7-4.7 16.2-11.2 20.9-20.9l3.6-7.5.3-111.8.2-111.7H64l.2 111.7zM149 256v21h-42v-42h42v21zm64 0v21h-42v-42h42v21zm64 0v21h-42v-42h42v21zm64 0v21h-42v-42h42v21zm64 0v21h-42v-42h42v21zm-256 64v21h-42v-42h42v21zm64 0v21h-42v-42h42v21zm64 0v21h-42v-42h42v21zm64 0v21h-42v-42h42v21zm64 0v21h-42v-42h42v21zm-256 64v21h-42v-42h42v21zm64 0v21h-42v-42h42v21zm64 0v21h-42v-42h42v21zm64 0v21h-42v-42h42v21zm64 0v21h-42v-42h42v21z" fill="#FFF"/><path d="M63.5 300c0 58.6.1 82.5.2 53.3.2-29.3.2-77.3 0-106.5-.1-29.3-.2-5.4-.2 53.2zm385 0c0 58.6.1 82.5.2 53.3.2-29.3.2-77.3 0-106.5-.1-29.3-.2-5.4-.2 53.2z" fill="#EDEDED" fill-opacity=".11"/><path d="M181.8 469.7c40.8.2 107.6.2 148.5 0 40.8-.1 7.4-.2-74.3-.2s-115.1.1-74.2.2z" fill="#C0C3C8" fill-opacity=".36"/></svg>
